<?xml version="1.0" encoding="UTF-8"?>
<svg id="Layer_2" data-name="Layer 2" xmlns="http://www.w3.org/2000/svg" viewBox="0 0 533.68 98.06">
  <defs>
    <style>
      .cls-1 {
        fill: #231f20;
        stroke-width: 0px;
      }
    </style>
  </defs>
  <g id="Layer_1-2" data-name="Layer 1">
    <g>
      <g>
        <path class="cls-1" d="M196.07,30.57c-2.64-3.09-5.83-5.47-9.57-7.16-3.75-1.69-7.92-2.53-12.53-2.53-5.27,0-9.96,1.17-14.08,3.52-3.67,2.09-6.63,5.1-8.89,9.02V.38h-19.88v90.15h15.81v-14.72c.44,1.15.93,2.25,1.48,3.3,2.39,4.49,5.68,7.88,9.88,10.19,4.2,2.3,9.05,3.46,14.57,3.46,4.86,0,9.22-.86,13.09-2.59,3.87-1.73,7.18-4.18,9.94-7.35,2.76-3.17,4.86-6.87,6.3-11.11,1.44-4.24,2.16-8.83,2.16-13.77v-2.72c0-4.94-.72-9.51-2.16-13.71-1.44-4.2-3.48-7.84-6.11-10.93ZM182.36,66.75c-1.4,3.01-3.36,5.33-5.87,6.98-2.51,1.65-5.45,2.47-8.83,2.47-2.8,0-5.52-.66-8.15-1.98-2.64-1.32-4.8-3.23-6.48-5.74-1.69-2.51-2.53-5.54-2.53-9.08v-4.57c0-3.62.8-6.75,2.41-9.38,1.61-2.63,3.72-4.63,6.36-5.99,2.63-1.36,5.43-2.04,8.4-2.04,3.38,0,6.32.78,8.83,2.35,2.51,1.56,4.46,3.79,5.87,6.67,1.4,2.88,2.1,6.26,2.1,10.13s-.7,7.18-2.1,10.19Z"/>
        <path class="cls-1" d="M260.1,24.7c-4.73-1.98-10.56-2.96-17.47-2.96-2.39,0-4.94.04-7.66.12-2.72.08-5.35.21-7.9.37-2.55.17-4.82.33-6.79.49v16.67c2.55-.16,5.41-.31,8.58-.43,3.17-.12,6.24-.23,9.2-.31,2.96-.08,5.35-.12,7.16-.12,3.62,0,6.26.85,7.9,2.53,1.65,1.69,2.47,4.3,2.47,7.84v.12h-12.23c-6.01,0-11.32.76-15.93,2.28-4.61,1.52-8.19,3.87-10.74,7.04-2.55,3.17-3.83,7.22-3.83,12.16,0,4.53,1.03,8.42,3.09,11.67,2.06,3.25,4.92,5.74,8.58,7.47,3.66,1.73,7.92,2.59,12.78,2.59s8.66-.86,11.92-2.59c3.25-1.73,5.8-4.2,7.66-7.41.83-1.43,1.5-3.02,2.04-4.74v13.01h15.68v-41.49c0-6.26-1.23-11.38-3.7-15.37-2.47-3.99-6.07-6.98-10.81-8.95ZM249.23,77.37c-1.77.78-3.77,1.17-5.99,1.17-3.46,0-6.11-.84-7.96-2.53-1.85-1.69-2.78-3.89-2.78-6.61,0-2.88.93-5.17,2.78-6.85,1.85-1.69,4.51-2.53,7.96-2.53h12.35v5.43c-.17,3.38-.82,6.01-1.98,7.9-1.15,1.89-2.61,3.23-4.38,4.01Z"/>
        <path class="cls-1" d="M385.62,20.75h-.86c-5.11,0-9.34,1.22-12.72,3.64-3.15,2.27-5.57,5.53-7.29,9.76V.38h-19.88v22.47h-32.97V4.57h-18.4l-.04,18.28h-10.33v14.57h10.3l-.06,26.67c0,6.83.99,12.25,2.96,16.24,1.98,3.99,5.06,6.85,9.26,8.58,4.2,1.73,9.71,2.59,16.55,2.59h9.51v-16.79h-10c-3.13,0-5.54-.84-7.22-2.53-1.69-1.69-2.53-4.14-2.53-7.35v-27.41h32.97v53.1h19.88v-39.02c0-3.87,1.13-7,3.4-9.39,2.26-2.39,5.25-3.58,8.95-3.58s6.38,1.11,8.52,3.33c2.14,2.22,3.21,5.19,3.21,8.89v39.76h19.88v-38.53c0-10.21-1.98-17.97-5.93-23.28-3.95-5.31-9.67-7.97-17.17-7.97Z"/>
        <path class="cls-1" d="M446.93,29.77c-3.08,3.92-4.99,9.11-5.74,15.56v-22.47h-15.81v67.67h19.88v-34.45c0-5.51,1.48-9.71,4.45-12.6,2.96-2.88,7.16-4.32,12.6-4.32h4.94v-17.17h-2.59c-7.74,0-13.65,2.59-17.72,7.78Z"/>
        <path class="cls-1" d="M529.98,33.66c-2.47-3.99-6.07-6.98-10.81-8.95-4.73-1.98-10.56-2.96-17.47-2.96-2.39,0-4.94.04-7.66.12-2.72.08-5.35.21-7.9.37-2.55.17-4.82.33-6.79.49v16.67c2.55-.16,5.41-.31,8.58-.43,3.17-.12,6.24-.23,9.2-.31,2.96-.08,5.35-.12,7.16-.12,3.62,0,6.26.85,7.9,2.53,1.65,1.69,2.47,4.3,2.47,7.84v.12h-12.23c-6.01,0-11.32.76-15.93,2.28-4.61,1.52-8.19,3.87-10.74,7.04-2.55,3.17-3.83,7.22-3.83,12.16,0,4.53,1.03,8.42,3.09,11.67,2.06,3.25,4.92,5.74,8.58,7.47,3.66,1.73,7.92,2.59,12.78,2.59s8.66-.86,11.92-2.59c3.25-1.73,5.8-4.2,7.66-7.41.83-1.43,1.5-3.02,2.04-4.74v13.01h15.68v-41.49c0-6.26-1.23-11.38-3.7-15.37ZM508.31,77.37c-1.77.78-3.77,1.17-5.99,1.17-3.46,0-6.11-.84-7.96-2.53-1.85-1.69-2.78-3.89-2.78-6.61,0-2.88.93-5.17,2.78-6.85,1.85-1.69,4.51-2.53,7.96-2.53h12.35v5.43c-.17,3.38-.82,6.01-1.98,7.9-1.15,1.89-2.61,3.23-4.38,4.01Z"/>
      </g>
      <path class="cls-1" d="M72.79,72.79c-17.88,17.88-41.65,26.27-65.06,25.17-4.12-.19-7.43-3.5-7.63-7.63-1.1-23.42,7.29-47.19,25.17-65.07S66.93-1.01,90.34.1c4.12.19,7.43,3.51,7.62,7.63,1.1,23.41-7.3,47.19-25.18,65.07Z"/>
    </g>
  </g>
</svg>